<svg xmlns="http://www.w3.org/2000/svg" viewBox="-40 -740 4740 780" role="img" aria-label="ATIMAR">
  <title>ATIMAR</title>
  <rect x="0" y="-700" width="700" height="700" rx="196" fill="#12140F"/>
  <g transform="translate(128.10 -105.00) scale(0.70000)" fill="#D9FF43">
    <path d="M18 0 202 -700H432L616 0H480L442 -154H192L154 0ZM223 -276H411L326 -617H308Z"/>
  </g>
  <g transform="translate(890.00 0)" fill="currentColor">
    <path d="M18 0 202 -700H432L616 0H480L442 -154H192L154 0ZM223 -276H411L326 -617H308Z"/>
    <path d="M832.0 0V-580H628.0V-700H1168.0V-580H964.0V0Z"/>
    <path d="M1228.0 0V-700H1360.0V0Z"/>
    <path d="M1462.0 0V-700H1707.0L1828.0 -90H1846.0L1967.0 -700H2212.0V0H2084.0V-603H2066.0L1946.0 0H1728.0L1608.0 -603H1590.0V0Z"/>
    <path d="M2266.0 0 2450.0 -700H2680.0L2864.0 0H2728.0L2690.0 -154H2440.0L2402.0 0ZM2471.0 -276H2659.0L2574.0 -617H2556.0Z"/>
    <path d="M2918.0 0V-700H3222.0Q3288.0 -700 3337.0 -677.0Q3386.0 -654 3413.0 -612.0Q3440.0 -570 3440.0 -513V-501Q3440.0 -438 3410.0 -399.0Q3380.0 -360 3336.0 -342V-324Q3376.0 -322 3398.0 -296.5Q3420.0 -271 3420.0 -229V0H3288.0V-210Q3288.0 -234 3275.5 -249.0Q3263.0 -264 3234.0 -264H3050.0V0ZM3050.0 -384H3208.0Q3255.0 -384 3281.5 -409.5Q3308.0 -435 3308.0 -477V-487Q3308.0 -529 3282.0 -554.5Q3256.0 -580 3208.0 -580H3050.0Z"/>
  </g>
  <circle cx="4582.00" cy="-310" r="78" fill="#D9FF43"/>
</svg>
